<svg xmlns="http://www.w3.org/2000/svg" viewBox="0 0 2478.28 1795.65"><defs><style>.a{fill:#313131;}.b{fill:#8d3c3c;}</style></defs><title>logo-5</title><path class="a" d="M1240.25,36c-400.63,0-725.4,302.59-725.4,675.83,0,212.66,105.46,402.38,270.35,526.28v257.68l247-136.4a775.81,775.81,0,0,0,208,28.26c400.63,0,725.4-302.59,725.4-675.83S1640.88,36,1240.25,36Z" transform="translate(-9.9 -36)"/><polygon class="b" points="1153.74 486.58 1342.99 684.82 1698.95 486.58 1302.47 910.09 1302.47 910.09 1117.71 711.85 757.26 910.09 1153.74 486.58"/><path class="a" d="M9.9,1730.25a204.12,204.12,0,0,1,30.9-2.1c19.2,0,31.65,3.45,41.4,10.8,10.5,7.8,17.1,20.25,17.1,38.1,0,19.35-7,32.7-16.8,40.95-10.65,8.85-26.85,13-46.65,13a198,198,0,0,1-25.95-1.5Zm22.95,82.5a42,42,0,0,0,7.95.45c20.7.15,34.2-11.25,34.2-35.4.15-21-12.15-32.1-31.8-32.1a47.52,47.52,0,0,0-10.35.9Z" transform="translate(-9.9 -36)"/><path class="a" d="M135.45,1804.05l-7.2,25.95h-23.7l30.9-101.1h30L196.8,1830H172.2l-7.8-25.95ZM161.1,1787l-6.3-21.45c-1.8-6-3.6-13.5-5.1-19.5h-.3c-1.5,6-3,13.65-4.65,19.5l-6,21.45Z" transform="translate(-9.9 -36)"/><path class="a" d="M210.3,1730.25a200.86,200.86,0,0,1,30.45-2.1c15,0,25.5,2.25,32.7,7.95,6,4.8,9.3,11.85,9.3,21.15,0,12.9-9.15,21.75-17.85,24.9v.45c7,2.85,10.95,9.6,13.5,18.9,3.15,11.4,6.3,24.6,8.25,28.5h-23.4c-1.65-2.85-4.05-11.1-7-23.55-2.7-12.6-7-16-16.35-16.2h-6.9V1830H210.3Zm22.65,43.5h9c11.4,0,18.15-5.7,18.15-14.55,0-9.3-6.3-13.95-16.8-14.1a57.09,57.09,0,0,0-10.35.75Z" transform="translate(-9.9 -36)"/><path class="a" d="M299.25,1728.9H321.9v44.7h.45c2.25-3.9,4.65-7.5,6.9-11.1l22.95-33.6h28l-33.45,43L382,1830h-26.7l-24.75-43.65L321.9,1797v33H299.25Z" transform="translate(-9.9 -36)"/><path class="a" d="M421.65,1728.9h61.8v18.75H444.6v23.1h36.3v18.6H444.6V1830H421.65Z" transform="translate(-9.9 -36)"/><path class="a" d="M514.2,1804.05,507,1830H483.3l30.9-101.1h30L575.54,1830h-24.6l-7.8-25.95Zm25.65-17.1-6.3-21.45c-1.8-6-3.6-13.5-5.1-19.5h-.3c-1.5,6-3,13.65-4.65,19.5l-6,21.45Z" transform="translate(-9.9 -36)"/><path class="a" d="M659.54,1827.15c-4.2,2.1-13.65,4.35-25.95,4.35-34.95,0-52.95-21.75-52.95-50.55,0-34.5,24.6-53.7,55.2-53.7,11.85,0,20.85,2.4,24.9,4.5l-4.65,18.15a49.37,49.37,0,0,0-19.2-3.75c-18.15,0-32.25,10.95-32.25,33.45,0,20.25,12,33,32.4,33a57.12,57.12,0,0,0,19-3.3Z" transform="translate(-9.9 -36)"/><path class="a" d="M734.69,1787.25h-37.2v24H739V1830h-64.5V1728.9h62.4v18.75H697.49v21h37.2Z" transform="translate(-9.9 -36)"/><path class="a" d="M754.64,1730.25c6-1.2,18.15-2.1,29.55-2.1,13.95,0,22.5,1.35,29.85,5.7,7,3.75,12.15,10.65,12.15,19.8,0,9-5.25,17.4-16.65,21.6v.3c11.55,3.15,20.1,11.85,20.1,24.9a26.93,26.93,0,0,1-10.5,21.45c-7.35,5.85-19.65,9.15-39.75,9.15a176.87,176.87,0,0,1-24.75-1.5Zm22.65,38.7h7.5c12,0,18.45-4.95,18.45-12.45s-5.85-11.7-16.2-11.7a62.46,62.46,0,0,0-9.75.6Zm0,44.85a72.17,72.17,0,0,0,8.85.3c10.35,0,19.5-3.9,19.5-14.55,0-10.2-9.15-14.25-20.55-14.25h-7.8Z" transform="translate(-9.9 -36)"/><path class="a" d="M937.79,1778.4c0,33.15-20.1,53.25-49.65,53.25-30,0-47.55-22.65-47.55-51.45,0-30.3,19.35-52.95,49.2-52.95C920.84,1727.25,937.79,1750.5,937.79,1778.4Zm-73,1.35c0,19.8,9.3,33.75,24.6,33.75,15.45,0,24.3-14.7,24.3-34.35,0-18.15-8.7-33.75-24.45-33.75C873.74,1745.4,864.74,1760.1,864.74,1779.75Z" transform="translate(-9.9 -36)"/><path class="a" d="M1045.34,1778.4c0,33.15-20.1,53.25-49.65,53.25-30,0-47.55-22.65-47.55-51.45,0-30.3,19.35-52.95,49.2-52.95C1028.39,1727.25,1045.34,1750.5,1045.34,1778.4Zm-73,1.35c0,19.8,9.3,33.75,24.6,33.75s24.3-14.7,24.3-34.35c0-18.15-8.7-33.75-24.45-33.75C981.29,1745.4,972.29,1760.1,972.29,1779.75Z" transform="translate(-9.9 -36)"/><path class="a" d="M1060.34,1728.9H1083v44.7h.45c2.25-3.9,4.65-7.5,6.9-11.1l22.95-33.6h28l-33.45,43,35.25,58h-26.7l-24.75-43.65L1083,1797v33h-22.65Z" transform="translate(-9.9 -36)"/><path class="a" d="M1268.24,1791.3c-.45-12.15-.9-26.85-.9-41.55h-.45c-3.15,12.9-7.35,27.3-11.25,39.15l-12.3,39.45h-17.85l-10.8-39.15c-3.3-11.85-6.75-26.25-9.15-39.45h-.3c-.6,13.65-1,29.25-1.8,41.85l-1.8,38.4h-21.15l6.45-101.1h30.45l9.9,33.75c3.15,11.7,6.3,24.3,8.55,36.15h.45c2.85-11.7,6.3-25,9.6-36.3l10.8-33.6h29.85l5.55,101.1h-22.35Z" transform="translate(-9.9 -36)"/><path class="a" d="M1369.79,1787.25h-37.2v24h41.55V1830h-64.5V1728.9H1372v18.75h-39.45v21h37.2Z" transform="translate(-9.9 -36)"/><path class="a" d="M1390.49,1806.45a58.33,58.33,0,0,0,25.35,6.3c10.5,0,16-4.35,16-11,0-6.3-4.8-9.9-16.95-14.25-16.8-5.85-27.75-15.15-27.75-29.85,0-17.25,14.4-30.45,38.25-30.45,11.4,0,19.8,2.4,25.8,5.1l-5.1,18.45A48.07,48.07,0,0,0,1425,1746c-9.9,0-14.7,4.5-14.7,9.75,0,6.45,5.7,9.3,18.75,14.25,17.85,6.6,26.25,15.9,26.25,30.15,0,16.95-13,31.35-40.8,31.35-11.55,0-22.95-3-28.65-6.15Z" transform="translate(-9.9 -36)"/><path class="a" d="M1471.49,1806.45a58.33,58.33,0,0,0,25.35,6.3c10.5,0,16-4.35,16-11,0-6.3-4.8-9.9-16.95-14.25-16.8-5.85-27.75-15.15-27.75-29.85,0-17.25,14.4-30.45,38.25-30.45,11.4,0,19.8,2.4,25.8,5.1l-5.1,18.45A48.07,48.07,0,0,0,1506,1746c-9.9,0-14.7,4.5-14.7,9.75,0,6.45,5.7,9.3,18.75,14.25,17.85,6.6,26.25,15.9,26.25,30.15,0,16.95-13,31.35-40.8,31.35-11.55,0-22.95-3-28.65-6.15Z" transform="translate(-9.9 -36)"/><path class="a" d="M1611.88,1787.25h-37.2v24h41.55V1830h-64.5V1728.9h62.4v18.75h-39.45v21h37.2Z" transform="translate(-9.9 -36)"/><path class="a" d="M1631.84,1830V1728.9h26.7l21,37a293.1,293.1,0,0,1,16.5,34.65h.45a375.16,375.16,0,0,1-2-42.15V1728.9h21V1830h-24l-21.6-39a375.35,375.35,0,0,1-17.55-35.7l-.45.15c.6,13.35.9,27.6.9,44.1V1830Z" transform="translate(-9.9 -36)"/><path class="a" d="M1819.78,1825.35A113.14,113.14,0,0,1,1786,1831c-18.45,0-31.8-4.65-41.1-13.65-9.3-8.7-14.4-21.9-14.25-36.75.15-33.6,24.6-52.8,57.75-52.8,13,0,23.1,2.55,28,4.95l-4.8,18.3c-5.55-2.4-12.45-4.35-23.55-4.35-19,0-33.45,10.8-33.45,32.7,0,20.85,13,33.15,31.8,33.15,5.25,0,9.45-.6,11.25-1.5V1790h-15.6V1772.1h37.65Z" transform="translate(-9.9 -36)"/><path class="a" d="M1897.78,1787.25h-37.2v24h41.55V1830h-64.5V1728.9H1900v18.75h-39.45v21h37.2Z" transform="translate(-9.9 -36)"/><path class="a" d="M1917.73,1730.25a200.86,200.86,0,0,1,30.45-2.1c15,0,25.5,2.25,32.7,7.95,6,4.8,9.3,11.85,9.3,21.15,0,12.9-9.15,21.75-17.85,24.9v.45c7,2.85,11,9.6,13.5,18.9,3.15,11.4,6.3,24.6,8.25,28.5h-23.4c-1.65-2.85-4-11.1-7-23.55-2.7-12.6-7-16-16.35-16.2h-6.9V1830h-22.65Zm22.65,43.5h9c11.4,0,18.15-5.7,18.15-14.55,0-9.3-6.3-13.95-16.8-14.1a57.08,57.08,0,0,0-10.35.75Z" transform="translate(-9.9 -36)"/><path class="a" d="M2050.63,1748.1h-27.15v-19.2h77.7v19.2h-27.6V1830h-22.95Z" transform="translate(-9.9 -36)"/><path class="a" d="M2136.28,1728.9v38.85h37.65V1728.9h22.8V1830h-22.8v-42.3h-37.65V1830h-22.95V1728.9Z" transform="translate(-9.9 -36)"/><path class="a" d="M2276.83,1787.25h-37.2v24h41.55V1830h-64.5V1728.9h62.4v18.75h-39.45v21h37.2Z" transform="translate(-9.9 -36)"/><path class="a" d="M2382.28,1791.3c-.45-12.15-.9-26.85-.9-41.55h-.45c-3.15,12.9-7.35,27.3-11.25,39.15l-12.3,39.45h-17.85l-10.8-39.15c-3.3-11.85-6.75-26.25-9.15-39.45h-.3c-.6,13.65-1,29.25-1.8,41.85l-1.8,38.4h-21.15l6.45-101.1h30.45l9.9,33.75c3.15,11.7,6.3,24.3,8.55,36.15h.45c2.85-11.7,6.3-25,9.6-36.3l10.8-33.6h29.85l5.55,101.1h-22.35Z" transform="translate(-9.9 -36)"/><path class="a" d="M2483.83,1787.25h-37.2v24h41.55V1830h-64.5V1728.9h62.4v18.75h-39.45v21h37.2Z" transform="translate(-9.9 -36)"/></svg>